<svg xmlns="http://www.w3.org/2000/svg" viewBox="0 0 800 600" fill="none">
  <defs>
    <linearGradient id="bg" x1="0%" y1="0%" x2="100%" y2="100%">
      <stop offset="0%" stop-color="#18181b"/>
      <stop offset="100%" stop-color="#09090b"/>
    </linearGradient>
    <linearGradient id="glow" x1="50%" y1="0%" x2="50%" y2="100%">
      <stop offset="0%" stop-color="#00d4ff" stop-opacity="0.3"/>
      <stop offset="100%" stop-color="#ff6b2b" stop-opacity="0.1"/>
    </linearGradient>
    <filter id="blur"><feGaussianBlur stdDeviation="40"/></filter>
  </defs>
  <rect width="800" height="600" fill="url(#bg)"/>
  <ellipse cx="400" cy="200" rx="200" ry="120" fill="url(#glow)" filter="url(#blur)"/>
  <rect x="180" y="120" width="440" height="380" rx="8" fill="#27272a" stroke="#3f3f46" stroke-width="2"/>
  <rect x="200" y="100" width="400" height="40" rx="4" fill="#3f3f46" transform="rotate(-8 400 120)"/>
  <rect x="220" y="200" width="80" height="80" fill="#52525b" stroke="#71717a"/>
  <rect x="320" y="200" width="80" height="80" fill="#52525b" stroke="#71717a"/>
  <rect x="420" y="200" width="80" height="80" fill="#52525b" stroke="#71717a"/>
  <rect x="520" y="200" width="80" height="80" fill="#52525b" stroke="#71717a"/>
  <rect x="220" y="300" width="80" height="80" fill="#3f3f46" stroke="#00d4ff" stroke-width="2"/>
  <rect x="320" y="300" width="80" height="80" fill="#52525b" stroke="#71717a"/>
  <rect x="420" y="300" width="80" height="80" fill="#52525b" stroke="#71717a"/>
  <rect x="520" y="300" width="80" height="80" fill="#52525b" stroke="#71717a"/>
  <rect x="320" y="400" width="80" height="80" fill="#ff6b2b" fill-opacity="0.3" stroke="#ff6b2b"/>
  <text x="400" y="520" text-anchor="middle" fill="#71717a" font-family="sans-serif" font-size="14">HERO BOX · Placeholder</text>
</svg>
