<svg xmlns="http://www.w3.org/2000/svg" viewBox="0 0 800 600" fill="none">
  <defs>
    <radialGradient id="frost-glow" cx="50%" cy="20%" r="70%">
      <stop stop-color="#00d4ff" stop-opacity="0.2"/>
      <stop stop-color="#09090b" stop-opacity="0"/>
    </radialGradient>
  </defs>
  <rect width="800" height="600" fill="#09090b"/>
  <rect width="800" height="600" fill="url(#frost-glow)"/>
  <rect x="60" y="60" width="680" height="480" rx="4" fill="#18181b" stroke="#00d4ff" stroke-opacity="0.3"/>
  <rect x="100" y="120" width="90" height="90" fill="#27272a" stroke="#00d4ff" stroke-opacity="0.4"/>
  <rect x="210" y="120" width="90" height="90" fill="#27272a" stroke="#00d4ff" stroke-opacity="0.4"/>
  <rect x="320" y="120" width="90" height="90" fill="#27272a" stroke="#00d4ff" stroke-opacity="0.4"/>
  <rect x="430" y="120" width="90" height="90" fill="#27272a" stroke="#00d4ff" stroke-opacity="0.4"/>
  <rect x="540" y="120" width="90" height="90" fill="#27272a" stroke="#00d4ff" stroke-opacity="0.4"/>
  <rect x="650" y="120" width="90" height="90" fill="#00d4ff" fill-opacity="0.2" stroke="#00d4ff"/>
  <rect x="155" y="240" width="90" height="90" fill="#3f3f46"/>
  <rect x="265" y="240" width="90" height="90" fill="#3f3f46"/>
  <rect x="375" y="240" width="90" height="90" fill="#3f3f46"/>
  <rect x="485" y="240" width="90" height="90" fill="#3f3f46"/>
  <rect x="595" y="240" width="90" height="90" fill="#3f3f46"/>
  <rect x="210" y="360" width="90" height="90" fill="#52525b"/>
  <rect x="320" y="360" width="90" height="90" fill="#52525b"/>
  <rect x="430" y="360" width="90" height="90" fill="#52525b"/>
  <rect x="540" y="360" width="90" height="90" fill="#52525b"/>
  <text x="400" y="560" text-anchor="middle" fill="#00d4ff" font-family="sans-serif" font-size="16" letter-spacing="4">LEND¡RIO</text>
</svg>
